<?xml version="1.0" standalone="no"?>
<svg xmlns:xlink="http://www.w3.org/1999/xlink" id="wave" style="transform:rotate(0deg); transition: 0.3s" viewBox="0 0 1440 470" version="1.1" xmlns="http://www.w3.org/2000/svg"><defs><linearGradient id="sw-gradient-0" x1="0" x2="0" y1="1" y2="0"><stop stop-color="rgba(0, 82.087, 232.602, 0.12)" offset="0%"/><stop stop-color="rgba(0, 37.19, 248.54, 0.09)" offset="100%"/></linearGradient></defs><path style="transform:translate(0, 0px); opacity:1" fill="url(#sw-gradient-0)" d="M0,94L480,188L960,47L1440,141L1920,94L2400,423L2880,47L3360,47L3840,47L4320,47L4800,94L5280,188L5760,282L6240,376L6720,0L7200,376L7680,94L8160,423L8640,141L9120,329L9600,376L10080,47L10560,94L11040,423L11520,188L11520,470L11040,470L10560,470L10080,470L9600,470L9120,470L8640,470L8160,470L7680,470L7200,470L6720,470L6240,470L5760,470L5280,470L4800,470L4320,470L3840,470L3360,470L2880,470L2400,470L1920,470L1440,470L960,470L480,470L0,470Z"/></svg>