<?xml version="1.0" standalone="no"?>
<svg xmlns:xlink="http://www.w3.org/1999/xlink" id="wave" style="transform:rotate(180deg); transition: 0.3s" viewBox="0 0 1440 400" version="1.1" xmlns="http://www.w3.org/2000/svg"><defs><linearGradient id="sw-gradient-0" x1="0" x2="0" y1="1" y2="0"><stop stop-color="rgba(0, 82.087, 232.602, 0.12)" offset="0%"/><stop stop-color="rgba(0, 37.19, 248.54, 0.09)" offset="100%"/></linearGradient></defs><path style="transform:translate(0, 0px); opacity:1" fill="url(#sw-gradient-0)" d="M0,160L480,240L960,40L1440,80L1920,40L2400,200L2880,240L3360,120L3840,240L4320,240L4800,280L5280,320L5760,280L6240,200L6720,240L7200,80L7680,80L8160,200L8640,0L9120,200L9600,120L10080,160L10560,160L11040,0L11520,240L11520,400L11040,400L10560,400L10080,400L9600,400L9120,400L8640,400L8160,400L7680,400L7200,400L6720,400L6240,400L5760,400L5280,400L4800,400L4320,400L3840,400L3360,400L2880,400L2400,400L1920,400L1440,400L960,400L480,400L0,400Z"/></svg>