<?xml version="1.0" standalone="no"?>
<svg xmlns:xlink="http://www.w3.org/1999/xlink" id="wave" style="transform:rotate(0deg); transition: 0.3s" viewBox="0 0 1440 270" version="1.1" xmlns="http://www.w3.org/2000/svg"><defs><linearGradient id="sw-gradient-0" x1="0" x2="0" y1="1" y2="0"><stop stop-color="rgba(0, 82.087, 232.602, 0.12)" offset="0%"/><stop stop-color="rgba(0, 37.19, 248.54, 0.09)" offset="100%"/></linearGradient></defs><path style="transform:translate(0, 0px); opacity:1" fill="url(#sw-gradient-0)" d="M0,243L240,0L480,54L720,108L960,0L1200,27L1440,81L1680,0L1920,135L2160,54L2400,135L2640,189L2880,108L3120,27L3360,0L3600,189L3840,189L4080,189L4320,162L4560,27L4800,0L5040,54L5280,0L5520,162L5760,189L5760,270L5520,270L5280,270L5040,270L4800,270L4560,270L4320,270L4080,270L3840,270L3600,270L3360,270L3120,270L2880,270L2640,270L2400,270L2160,270L1920,270L1680,270L1440,270L1200,270L960,270L720,270L480,270L240,270L0,270Z"/></svg>