<?xml version="1.0" standalone="no"?>
<svg xmlns:xlink="http://www.w3.org/1999/xlink" id="wave" style="transform:rotate(180deg); transition: 0.3s" viewBox="0 0 1440 400" version="1.1" xmlns="http://www.w3.org/2000/svg"><defs><linearGradient id="sw-gradient-0" x1="0" x2="0" y1="1" y2="0"><stop stop-color="rgba(0, 82.087, 232.602, 0.12)" offset="0%"/><stop stop-color="rgba(0, 37.19, 248.54, 0.09)" offset="100%"/></linearGradient></defs><path style="transform:translate(0, 0px); opacity:1" fill="url(#sw-gradient-0)" d="M0,120L480,200L960,40L1440,240L1920,80L2400,40L2880,40L3360,80L3840,40L4320,0L4800,80L5280,360L5760,0L6240,360L6720,240L7200,0L7680,280L8160,40L8640,80L9120,320L9600,160L10080,0L10560,320L11040,120L11520,240L11520,400L11040,400L10560,400L10080,400L9600,400L9120,400L8640,400L8160,400L7680,400L7200,400L6720,400L6240,400L5760,400L5280,400L4800,400L4320,400L3840,400L3360,400L2880,400L2400,400L1920,400L1440,400L960,400L480,400L0,400Z"/></svg>