<?xml version="1.0" standalone="no"?>
<svg xmlns:xlink="http://www.w3.org/1999/xlink" id="wave" style="transform:rotate(180deg); transition: 0.3s" viewBox="0 0 1440 490" version="1.1" xmlns="http://www.w3.org/2000/svg"><defs><linearGradient id="sw-gradient-0" x1="0" x2="0" y1="1" y2="0"><stop stop-color="rgba(0, 82.087, 232.602, 0.12)" offset="0%"/><stop stop-color="rgba(0, 37.19, 248.54, 0.09)" offset="100%"/></linearGradient></defs><path style="transform:translate(0, 0px); opacity:1" fill="url(#sw-gradient-0)" d="M0,392L288,392L576,294L864,0L1152,0L1440,98L1728,147L2016,49L2304,245L2592,196L2880,294L3168,196L3456,0L3744,441L4032,294L4320,441L4608,392L4896,343L5184,0L5472,245L5760,49L6048,245L6336,441L6624,343L6912,343L6912,490L6624,490L6336,490L6048,490L5760,490L5472,490L5184,490L4896,490L4608,490L4320,490L4032,490L3744,490L3456,490L3168,490L2880,490L2592,490L2304,490L2016,490L1728,490L1440,490L1152,490L864,490L576,490L288,490L0,490Z"/></svg>