<?xml version="1.0" standalone="no"?>
<svg xmlns:xlink="http://www.w3.org/1999/xlink" id="wave" style="transform:rotate(0deg); transition: 0.3s" viewBox="0 0 1440 360" version="1.1" xmlns="http://www.w3.org/2000/svg"><defs><linearGradient id="sw-gradient-0" x1="0" x2="0" y1="1" y2="0"><stop stop-color="rgba(0, 0, 0, 0.78)" offset="0%"/><stop stop-color="rgba(0, 20.156, 134.7, 1)" offset="100%"/></linearGradient></defs><path style="transform:translate(0, 0px); opacity:1" fill="url(#sw-gradient-0)" d="M0,72L360,72L720,36L1080,72L1440,36L1800,252L2160,108L2520,324L2880,72L3240,0L3600,144L3960,36L4320,180L4680,324L5040,36L5400,180L5760,0L6120,144L6480,0L6840,252L7200,72L7560,180L7920,72L8280,288L8640,288L8640,360L8280,360L7920,360L7560,360L7200,360L6840,360L6480,360L6120,360L5760,360L5400,360L5040,360L4680,360L4320,360L3960,360L3600,360L3240,360L2880,360L2520,360L2160,360L1800,360L1440,360L1080,360L720,360L360,360L0,360Z"/></svg>