<?xml version="1.0" standalone="no"?>
<svg xmlns:xlink="http://www.w3.org/1999/xlink" id="wave" style="transform:rotate(0deg); transition: 0.3s" viewBox="0 0 1440 490" version="1.1" xmlns="http://www.w3.org/2000/svg"><defs><linearGradient id="sw-gradient-0" x1="0" x2="0" y1="1" y2="0"><stop stop-color="rgba(0, 0, 0, 0.78)" offset="0%"/><stop stop-color="rgba(0, 20.156, 134.7, 1)" offset="100%"/></linearGradient></defs><path style="transform:translate(0, 0px); opacity:1" fill="url(#sw-gradient-0)" d="M0,98L720,0L1440,98L2160,196L2880,196L3600,49L4320,147L5040,343L5760,343L6480,49L7200,49L7920,294L8640,147L9360,98L10080,392L10800,343L11520,49L12240,245L12960,294L13680,196L14400,343L15120,0L15840,392L16560,245L17280,0L17280,490L16560,490L15840,490L15120,490L14400,490L13680,490L12960,490L12240,490L11520,490L10800,490L10080,490L9360,490L8640,490L7920,490L7200,490L6480,490L5760,490L5040,490L4320,490L3600,490L2880,490L2160,490L1440,490L720,490L0,490Z"/></svg>